{"title":"Martin Ritt - 1970 - The Great White Hope - DVDRip XviD","uid":8985155,"size":1264708456,"categoryP":"video","categoryS":"movies","magnet":"?xt=urn:btih:270f699cfebffaba84236a1457a300955366ac33&amp;dn=Martin+Ritt+-+1970+-+The+Great+White+Hope+-+DVDRip+XviD&amp;tr=udp%3A%2F%2Ftracker.openbittorrent.com%3A80&amp;tr=udp%3A%2F%2Fopen.demonii.com%3A1337&amp;tr=udp%3A%2F%2Ftracker.coppersurfer.tk%3A6969&amp;tr=udp%3A%2F%2Fexodus.desync.com%3A6969","seeders":2,"leechers":2,"uploader":"rpessoa","files":1,"time":1380652990,"description":"A black champion boxer and his white female companion struggle to survive while the white boxing establishment looks for ways to knock him down.\n &lt;a href=&quot;\nhttp://www.imdb.com/title/tt0065797/&quot; rel=&quot;nofollow&quot; target=&quot;_NEW&quot;&gt;\nhttp://www.imdb.com/title/tt0065797/&lt;/a&gt;\n\nGeneral\nComplete name                            : The Great White Hope (1970).avi\nFormat                                   : AVI\nFormat/Info                              : Audio Video Interleave\nFile size                                : 1.18 GiB\nDuration                                 : 1h 42mn\nOverall bit rate                         : 1 641 Kbps\n\nVideo\nID                                       : 0\nFormat                                   : MPEG-4 Visual\nFormat profile                           : Simple@L3\nFormat settings, BVOP                    : No\nFormat settings, QPel                    : No\nFormat settings, GMC                     : No warppoints\nFormat settings, Matrix                  : Default (H.263)\nCodec ID                                 : XVID\nCodec ID/Hint                            : XviD\nDuration                                 : 1h 42mn\nSource duration                          : 1h 42mn\nBit rate                                 : 1 500 Kbps\nWidth                                    : 720 pixels\nHeight                                   : 304 pixels\nDisplay aspect ratio                     : 2.35:1\nFrame rate                               : 23.976 fps\nColor space                              : YUV\nChroma subsampling                       : 4:2:0\nBit depth                                : 8 bits\nScan type                                : Progressive\nCompression mode                         : Lossy\nBits/(Pixel*Frame)                       : 0.286\nStream size                              : 1.08 GiB (91%)\nWriting library                          : XviD 1.1.2 (UTC 2006-11-01)\n\nAudio\nID                                       : 1\nFormat                                   : MPEG Audio\nFormat version                           : Version 1\nFormat profile                           : Layer 3\nMode                                     : Joint stereo\nMode extension                           : MS Stereo\nCodec ID                                 : 55\nCodec ID/Hint                            : MP3\nDuration                                 : 1h 42mn\nBit rate mode                            : Constant\nBit rate                                 : 128 Kbps\nChannel(s)                               : 2 channels\nSampling rate                            : 48.0 KHz\nCompression mode                         : Lossy\nDelay relative to video                  : 24ms\nStream size                              : 94.1 MiB (8%)\nAlignment                                : Split accross interleaves\nInterleave, duration                     : 24 ms (0.58 video frame)","torrent":{"xt":"urn:btih:270f699cfebffaba84236a1457a300955366ac33","amp;dn":"Martin+Ritt+-+1970+-+The+Great+White+Hope+-+DVDRip+XviD","amp;tr":["udp%3A%2F%2Ftracker.openbittorrent.com%3A80","udp%3A%2F%2Fopen.demonii.com%3A1337","udp%3A%2F%2Ftracker.coppersurfer.tk%3A6969","udp%3A%2F%2Fexodus.desync.com%3A6969"],"infoHash":"270f699cfebffaba84236a1457a300955366ac33","infoHashBuffer":{"type":"Buffer","data":[39,15,105,156,254,191,250,186,132,35,106,20,87,163,0,149,83,102,172,51]},"announce":[],"urlList":[]}}